<svg width="600" height="600" viewBox="0 0 600 600" fill="none" xmlns="http://www.w3.org/2000/svg">
<rect width="600" height="600" fill="white" fill-opacity="0.8"/>
<path d="M197.562 271.889C194.42 273.109 191.702 274.582 189.407 276.308C187.129 278.033 185.249 279.953 183.768 282.069C182.286 284.185 181.188 286.456 180.472 288.881C180.162 289.906 179.918 290.948 179.739 292.006C181.025 291.078 182.278 290.395 183.499 289.955C185.224 289.32 186.844 289.003 188.357 289.003C189.546 289.003 190.75 289.231 191.971 289.687C193.208 290.126 194.314 290.81 195.291 291.737C196.284 292.649 197.09 293.796 197.708 295.18C198.343 296.563 198.66 298.183 198.66 300.038C198.66 301.487 198.416 302.919 197.928 304.335C197.456 305.735 196.731 306.988 195.755 308.095C194.795 309.185 193.574 310.072 192.093 310.756C190.628 311.423 188.911 311.757 186.941 311.757C185.249 311.757 183.629 311.464 182.083 310.878C180.553 310.276 179.202 309.364 178.03 308.144C176.858 306.923 175.923 305.385 175.223 303.529C174.539 301.658 174.197 299.444 174.197 296.889C174.197 294.74 174.474 292.714 175.027 290.81C175.581 288.889 176.362 287.09 177.371 285.414C178.38 283.738 179.585 282.175 180.984 280.727C182.384 279.262 183.93 277.919 185.623 276.698C187.316 275.478 189.122 274.363 191.043 273.354C192.964 272.344 194.949 271.441 197 270.644L197.562 271.889ZM179.397 296.4C179.397 298.956 179.593 301.096 179.983 302.821C180.39 304.547 180.96 305.938 181.692 306.996C182.425 308.038 183.296 308.786 184.305 309.242C185.33 309.682 186.461 309.901 187.698 309.901C188.512 309.901 189.301 309.739 190.066 309.413C190.848 309.071 191.539 308.567 192.142 307.899C192.744 307.232 193.224 306.402 193.582 305.409C193.956 304.416 194.144 303.261 194.144 301.942C194.144 300.51 193.924 299.175 193.484 297.938C193.045 296.701 192.459 295.635 191.727 294.74C191.01 293.829 190.188 293.113 189.261 292.592C188.349 292.071 187.413 291.811 186.453 291.811C185.59 291.811 184.793 291.884 184.061 292.03C183.344 292.16 182.677 292.348 182.059 292.592C181.44 292.836 180.87 293.121 180.35 293.446C180.04 293.642 179.756 293.837 179.495 294.032C179.43 294.813 179.397 295.603 179.397 296.4ZM205.74 293.69C205.74 295.025 205.911 296.311 206.253 297.548C206.595 298.785 207.067 299.949 207.669 301.039C208.287 302.113 209.028 303.098 209.891 303.993C210.77 304.888 211.738 305.653 212.796 306.288C213.87 306.923 215.018 307.419 216.238 307.777C217.459 308.119 218.737 308.29 220.071 308.29C221.406 308.29 222.684 308.119 223.904 307.777C225.141 307.419 226.289 306.923 227.347 306.288C228.421 305.653 229.389 304.888 230.252 303.993C231.115 303.098 231.855 302.113 232.474 301.039C233.092 299.949 233.572 298.785 233.914 297.548C234.256 296.311 234.427 295.025 234.427 293.69C234.427 291.688 234.052 289.809 233.304 288.051C232.555 286.277 231.53 284.73 230.228 283.412C228.942 282.077 227.428 281.028 225.687 280.263C223.945 279.481 222.073 279.091 220.071 279.091C218.069 279.091 216.198 279.481 214.456 280.263C212.715 281.028 211.193 282.077 209.891 283.412C208.605 284.73 207.588 286.277 206.839 288.051C206.106 289.809 205.74 291.688 205.74 293.69ZM201.932 293.593C201.932 291.933 202.143 290.329 202.566 288.783C203.006 287.237 203.616 285.797 204.397 284.462C205.195 283.111 206.147 281.882 207.254 280.775C208.361 279.669 209.581 278.725 210.916 277.943C212.267 277.146 213.715 276.535 215.262 276.112C216.808 275.673 218.411 275.453 220.071 275.453C221.731 275.453 223.335 275.673 224.881 276.112C226.427 276.535 227.876 277.146 229.227 277.943C230.577 278.725 231.806 279.669 232.913 280.775C234.02 281.882 234.964 283.111 235.745 284.462C236.543 285.797 237.153 287.237 237.576 288.783C238.016 290.329 238.235 291.933 238.235 293.593C238.235 295.269 238.016 296.881 237.576 298.427C237.153 299.957 236.543 301.397 235.745 302.748C234.964 304.099 234.02 305.328 232.913 306.435C231.806 307.541 230.577 308.493 229.227 309.291C227.876 310.072 226.427 310.674 224.881 311.098C223.335 311.537 221.731 311.757 220.071 311.757C218.411 311.757 216.808 311.537 215.262 311.098C213.715 310.674 212.267 310.072 210.916 309.291C209.581 308.493 208.361 307.541 207.254 306.435C206.147 305.328 205.195 304.099 204.397 302.748C203.616 301.397 203.006 299.957 202.566 298.427C202.143 296.881 201.932 295.269 201.932 293.593ZM246.072 293.69C246.072 295.025 246.243 296.311 246.585 297.548C246.927 298.785 247.399 299.949 248.001 301.039C248.619 302.113 249.36 303.098 250.223 303.993C251.102 304.888 252.07 305.653 253.128 306.288C254.202 306.923 255.35 307.419 256.57 307.777C257.791 308.119 259.069 308.29 260.403 308.29C261.738 308.29 263.016 308.119 264.236 307.777C265.473 307.419 266.621 306.923 267.679 306.288C268.753 305.653 269.721 304.888 270.584 303.993C271.447 303.098 272.187 302.113 272.806 301.039C273.424 299.949 273.904 298.785 274.246 297.548C274.588 296.311 274.759 295.025 274.759 293.69C274.759 291.688 274.384 289.809 273.636 288.051C272.887 286.277 271.862 284.73 270.56 283.412C269.274 282.077 267.76 281.028 266.019 280.263C264.277 279.481 262.405 279.091 260.403 279.091C258.401 279.091 256.53 279.481 254.788 280.263C253.047 281.028 251.525 282.077 250.223 283.412C248.937 284.73 247.92 286.277 247.171 288.051C246.438 289.809 246.072 291.688 246.072 293.69ZM242.264 293.593C242.264 291.933 242.475 290.329 242.898 288.783C243.338 287.237 243.948 285.797 244.729 284.462C245.527 283.111 246.479 281.882 247.586 280.775C248.693 279.669 249.913 278.725 251.248 277.943C252.599 277.146 254.048 276.535 255.594 276.112C257.14 275.673 258.743 275.453 260.403 275.453C262.063 275.453 263.667 275.673 265.213 276.112C266.759 276.535 268.208 277.146 269.559 277.943C270.91 278.725 272.138 279.669 273.245 280.775C274.352 281.882 275.296 283.111 276.077 284.462C276.875 285.797 277.485 287.237 277.908 288.783C278.348 290.329 278.567 291.933 278.567 293.593C278.567 295.269 278.348 296.881 277.908 298.427C277.485 299.957 276.875 301.397 276.077 302.748C275.296 304.099 274.352 305.328 273.245 306.435C272.138 307.541 270.91 308.493 269.559 309.291C268.208 310.072 266.759 310.674 265.213 311.098C263.667 311.537 262.063 311.757 260.403 311.757C258.743 311.757 257.14 311.537 255.594 311.098C254.048 310.674 252.599 310.072 251.248 309.291C249.913 308.493 248.693 307.541 247.586 306.435C246.479 305.328 245.527 304.099 244.729 302.748C243.948 301.397 243.338 299.957 242.898 298.427C242.475 296.881 242.264 295.269 242.264 293.593ZM312.137 295.692L303.494 306.654C303.169 307.045 302.851 307.452 302.542 307.875C302.233 308.282 301.956 308.681 301.712 309.071C301.468 309.462 301.264 309.828 301.102 310.17C300.955 310.495 300.882 310.772 300.882 311H296.146V310.902C296.504 310.593 297.008 310.121 297.659 309.486C298.326 308.852 299.035 308.054 299.783 307.094L310.525 293.593L299.49 279.091C298.888 278.31 298.294 277.659 297.708 277.138C297.122 276.601 296.683 276.251 296.39 276.088V275.99H304.031C304.031 276.186 304.056 276.438 304.104 276.747C304.17 277.056 304.284 277.423 304.446 277.846C304.609 278.253 304.829 278.708 305.105 279.213C305.398 279.717 305.773 280.263 306.229 280.849L313.284 290.102L321.072 280.36C321.365 280.002 321.65 279.612 321.927 279.188C322.22 278.765 322.472 278.358 322.684 277.968C322.911 277.561 323.09 277.187 323.221 276.845C323.367 276.503 323.44 276.218 323.44 275.99H328.177V276.088C328.014 276.218 327.835 276.373 327.64 276.552C327.444 276.731 327.216 276.951 326.956 277.211C326.712 277.471 326.435 277.781 326.126 278.139C325.817 278.497 325.467 278.92 325.076 279.408L314.896 292.25L326.272 307.143C327.054 308.152 327.778 308.99 328.445 309.657C329.129 310.308 329.625 310.723 329.935 310.902V311H322.342C322.342 310.626 322.187 310.007 321.878 309.145C321.569 308.282 320.991 307.281 320.145 306.142L312.137 295.692ZM371.048 271.889C367.907 273.109 365.188 274.582 362.894 276.308C360.615 278.033 358.735 279.953 357.254 282.069C355.773 284.185 354.674 286.456 353.958 288.881C353.649 289.906 353.405 290.948 353.226 292.006C354.511 291.078 355.765 290.395 356.985 289.955C358.711 289.32 360.33 289.003 361.844 289.003C363.032 289.003 364.236 289.231 365.457 289.687C366.694 290.126 367.801 290.81 368.777 291.737C369.77 292.649 370.576 293.796 371.194 295.18C371.829 296.563 372.146 298.183 372.146 300.038C372.146 301.487 371.902 302.919 371.414 304.335C370.942 305.735 370.218 306.988 369.241 308.095C368.281 309.185 367.06 310.072 365.579 310.756C364.114 311.423 362.397 311.757 360.428 311.757C358.735 311.757 357.116 311.464 355.569 310.878C354.039 310.276 352.688 309.364 351.517 308.144C350.345 306.923 349.409 305.385 348.709 303.529C348.025 301.658 347.684 299.444 347.684 296.889C347.684 294.74 347.96 292.714 348.514 290.81C349.067 288.889 349.848 287.09 350.857 285.414C351.867 283.738 353.071 282.175 354.471 280.727C355.87 279.262 357.417 277.919 359.109 276.698C360.802 275.478 362.609 274.363 364.529 273.354C366.45 272.344 368.436 271.441 370.486 270.644L371.048 271.889ZM352.884 296.4C352.884 298.956 353.079 301.096 353.47 302.821C353.877 304.547 354.446 305.938 355.179 306.996C355.911 308.038 356.782 308.786 357.791 309.242C358.816 309.682 359.948 309.901 361.185 309.901C361.998 309.901 362.788 309.739 363.553 309.413C364.334 309.071 365.026 308.567 365.628 307.899C366.23 307.232 366.71 306.402 367.068 305.409C367.443 304.416 367.63 303.261 367.63 301.942C367.63 300.51 367.41 299.175 366.971 297.938C366.531 296.701 365.945 295.635 365.213 294.74C364.497 293.829 363.675 293.113 362.747 292.592C361.836 292.071 360.9 291.811 359.939 291.811C359.077 291.811 358.279 291.884 357.547 292.03C356.831 292.16 356.163 292.348 355.545 292.592C354.926 292.836 354.357 293.121 353.836 293.446C353.527 293.642 353.242 293.837 352.981 294.032C352.916 294.813 352.884 295.603 352.884 296.4ZM379.227 293.69C379.227 295.025 379.397 296.311 379.739 297.548C380.081 298.785 380.553 299.949 381.155 301.039C381.774 302.113 382.514 303.098 383.377 303.993C384.256 304.888 385.224 305.653 386.282 306.288C387.356 306.923 388.504 307.419 389.725 307.777C390.945 308.119 392.223 308.29 393.558 308.29C394.892 308.29 396.17 308.119 397.391 307.777C398.628 307.419 399.775 306.923 400.833 306.288C401.907 305.653 402.876 304.888 403.738 303.993C404.601 303.098 405.341 302.113 405.96 301.039C406.578 299.949 407.059 298.785 407.4 297.548C407.742 296.311 407.913 295.025 407.913 293.69C407.913 291.688 407.539 289.809 406.79 288.051C406.041 286.277 405.016 284.73 403.714 283.412C402.428 282.077 400.914 281.028 399.173 280.263C397.431 279.481 395.56 279.091 393.558 279.091C391.556 279.091 389.684 279.481 387.942 280.263C386.201 281.028 384.679 282.077 383.377 283.412C382.091 284.73 381.074 286.277 380.325 288.051C379.593 289.809 379.227 291.688 379.227 293.69ZM375.418 293.593C375.418 291.933 375.63 290.329 376.053 288.783C376.492 287.237 377.103 285.797 377.884 284.462C378.681 283.111 379.633 281.882 380.74 280.775C381.847 279.669 383.068 278.725 384.402 277.943C385.753 277.146 387.202 276.535 388.748 276.112C390.294 275.673 391.897 275.453 393.558 275.453C395.218 275.453 396.821 275.673 398.367 276.112C399.913 276.535 401.362 277.146 402.713 277.943C404.064 278.725 405.293 279.669 406.399 280.775C407.506 281.882 408.45 283.111 409.231 284.462C410.029 285.797 410.639 287.237 411.062 288.783C411.502 290.329 411.722 291.933 411.722 293.593C411.722 295.269 411.502 296.881 411.062 298.427C410.639 299.957 410.029 301.397 409.231 302.748C408.45 304.099 407.506 305.328 406.399 306.435C405.293 307.541 404.064 308.493 402.713 309.291C401.362 310.072 399.913 310.674 398.367 311.098C396.821 311.537 395.218 311.757 393.558 311.757C391.897 311.757 390.294 311.537 388.748 311.098C387.202 310.674 385.753 310.072 384.402 309.291C383.068 308.493 381.847 307.541 380.74 306.435C379.633 305.328 378.681 304.099 377.884 302.748C377.103 301.397 376.492 299.957 376.053 298.427C375.63 296.881 375.418 295.269 375.418 293.593ZM419.559 293.69C419.559 295.025 419.729 296.311 420.071 297.548C420.413 298.785 420.885 299.949 421.487 301.039C422.106 302.113 422.846 303.098 423.709 303.993C424.588 304.888 425.556 305.653 426.614 306.288C427.688 306.923 428.836 307.419 430.057 307.777C431.277 308.119 432.555 308.29 433.89 308.29C435.224 308.29 436.502 308.119 437.723 307.777C438.96 307.419 440.107 306.923 441.165 306.288C442.239 305.653 443.208 304.888 444.07 303.993C444.933 303.098 445.674 302.113 446.292 301.039C446.91 299.949 447.391 298.785 447.732 297.548C448.074 296.311 448.245 295.025 448.245 293.69C448.245 291.688 447.871 289.809 447.122 288.051C446.373 286.277 445.348 284.73 444.046 283.412C442.76 282.077 441.246 281.028 439.505 280.263C437.763 279.481 435.892 279.091 433.89 279.091C431.888 279.091 430.016 279.481 428.274 280.263C426.533 281.028 425.011 282.077 423.709 283.412C422.423 284.73 421.406 286.277 420.657 288.051C419.925 289.809 419.559 291.688 419.559 293.69ZM415.75 293.593C415.75 291.933 415.962 290.329 416.385 288.783C416.824 287.237 417.435 285.797 418.216 284.462C419.013 283.111 419.965 281.882 421.072 280.775C422.179 279.669 423.4 278.725 424.734 277.943C426.085 277.146 427.534 276.535 429.08 276.112C430.626 275.673 432.229 275.453 433.89 275.453C435.55 275.453 437.153 275.673 438.699 276.112C440.245 276.535 441.694 277.146 443.045 277.943C444.396 278.725 445.625 279.669 446.731 280.775C447.838 281.882 448.782 283.111 449.563 284.462C450.361 285.797 450.971 287.237 451.395 288.783C451.834 290.329 452.054 291.933 452.054 293.593C452.054 295.269 451.834 296.881 451.395 298.427C450.971 299.957 450.361 301.397 449.563 302.748C448.782 304.099 447.838 305.328 446.731 306.435C445.625 307.541 444.396 308.493 443.045 309.291C441.694 310.072 440.245 310.674 438.699 311.098C437.153 311.537 435.55 311.757 433.89 311.757C432.229 311.757 430.626 311.537 429.08 311.098C427.534 310.674 426.085 310.072 424.734 309.291C423.4 308.493 422.179 307.541 421.072 306.435C419.965 305.328 419.013 304.099 418.216 302.748C417.435 301.397 416.824 299.957 416.385 298.427C415.962 296.881 415.75 295.269 415.75 293.593Z" fill="white"/>
</svg>
