<svg width="343" height="320" viewBox="0 0 343 320" fill="none" xmlns="http://www.w3.org/2000/svg">
<rect width="343" height="320" fill="white" fill-opacity="0.8"/>
<path d="M81.6055 157.672C82.3086 157.581 83.0378 157.405 83.793 157.145C84.5612 156.871 85.2643 156.493 85.9023 156.012C86.5534 155.53 87.0872 154.924 87.5039 154.195C87.9206 153.466 88.1289 152.587 88.1289 151.559C88.1289 150.973 88.0443 150.426 87.875 149.918C87.7057 149.397 87.4388 148.941 87.0742 148.551C86.7227 148.16 86.2669 147.854 85.707 147.633C85.1602 147.398 84.5091 147.281 83.7539 147.281C82.8685 147.281 82.0677 147.405 81.3516 147.652C80.6484 147.9 80.0169 148.212 79.457 148.59C78.8971 148.967 78.4089 149.391 77.9922 149.859C77.5755 150.315 77.2305 150.764 76.957 151.207L76.6836 151.07L77.9531 147.047C78.4609 146.839 78.9753 146.643 79.4961 146.461C80.0169 146.266 80.5638 146.103 81.1367 145.973C81.7227 145.829 82.3411 145.719 82.9922 145.641C83.6562 145.562 84.3789 145.523 85.1602 145.523C85.5638 145.523 86.013 145.562 86.5078 145.641C87.0026 145.706 87.5039 145.823 88.0117 145.992C88.5326 146.161 89.0339 146.389 89.5156 146.676C89.9974 146.949 90.4271 147.294 90.8047 147.711C91.1953 148.128 91.5013 148.622 91.7227 149.195C91.957 149.755 92.0742 150.4 92.0742 151.129C92.0742 152.04 91.8919 152.841 91.5273 153.531C91.1628 154.208 90.7135 154.801 90.1797 155.309C89.6458 155.803 89.0794 156.214 88.4805 156.539C87.8815 156.852 87.3477 157.099 86.8789 157.281C87.6602 157.346 88.4544 157.509 89.2617 157.77C90.082 158.03 90.8242 158.427 91.4883 158.961C92.1523 159.482 92.6927 160.165 93.1094 161.012C93.5391 161.858 93.7539 162.893 93.7539 164.117C93.7539 165.51 93.4935 166.832 92.9727 168.082C92.4648 169.332 91.7747 170.497 90.9023 171.578C90.0299 172.659 89.0208 173.655 87.875 174.566C86.7292 175.478 85.5182 176.292 84.2422 177.008C82.9792 177.724 81.6901 178.342 80.375 178.863C79.0729 179.384 77.8294 179.788 76.6445 180.074L76.2734 179.078C78.1484 178.609 79.8932 177.945 81.5078 177.086C83.1224 176.227 84.5221 175.185 85.707 173.961C86.9049 172.724 87.8424 171.311 88.5195 169.723C89.2096 168.134 89.5547 166.376 89.5547 164.449C89.5547 163.368 89.3984 162.464 89.0859 161.734C88.7734 161.005 88.3633 160.426 87.8555 159.996C87.3607 159.553 86.8008 159.241 86.1758 159.059C85.5638 158.863 84.9453 158.766 84.3203 158.766C83.9427 158.766 83.5911 158.785 83.2656 158.824C82.9401 158.863 82.6536 158.909 82.4062 158.961C82.1198 159.013 81.8529 159.078 81.6055 159.156V157.672ZM114.203 145.523V145.602C114.138 145.875 114.079 146.214 114.027 146.617C113.975 147.021 113.93 147.522 113.891 148.121C113.865 148.72 113.839 149.436 113.812 150.27C113.799 151.09 113.793 152.053 113.793 153.16V165.191C114.978 165.165 115.941 165.126 116.684 165.074C117.439 165.022 118.038 164.944 118.48 164.84H118.559V167.633H118.48C118.038 167.555 117.439 167.483 116.684 167.418C115.941 167.353 114.978 167.307 113.793 167.281C113.806 168.232 113.826 169.065 113.852 169.781C113.878 170.497 113.917 171.122 113.969 171.656C114.021 172.177 114.079 172.626 114.145 173.004C114.21 173.368 114.281 173.674 114.359 173.922V174H109.672V173.922C109.75 173.674 109.822 173.368 109.887 173.004C109.952 172.626 110.004 172.177 110.043 171.656C110.095 171.122 110.134 170.497 110.16 169.781C110.199 169.065 110.225 168.232 110.238 167.281H96.8398V166.402L113.793 145.523H114.203ZM110.238 165.191V152.926L100.355 165.191H110.238ZM124.301 157.672C125.004 157.581 125.733 157.405 126.488 157.145C127.257 156.871 127.96 156.493 128.598 156.012C129.249 155.53 129.783 154.924 130.199 154.195C130.616 153.466 130.824 152.587 130.824 151.559C130.824 150.973 130.74 150.426 130.57 149.918C130.401 149.397 130.134 148.941 129.77 148.551C129.418 148.16 128.962 147.854 128.402 147.633C127.855 147.398 127.204 147.281 126.449 147.281C125.564 147.281 124.763 147.405 124.047 147.652C123.344 147.9 122.712 148.212 122.152 148.59C121.592 148.967 121.104 149.391 120.688 149.859C120.271 150.315 119.926 150.764 119.652 151.207L119.379 151.07L120.648 147.047C121.156 146.839 121.671 146.643 122.191 146.461C122.712 146.266 123.259 146.103 123.832 145.973C124.418 145.829 125.036 145.719 125.688 145.641C126.352 145.562 127.074 145.523 127.855 145.523C128.259 145.523 128.708 145.562 129.203 145.641C129.698 145.706 130.199 145.823 130.707 145.992C131.228 146.161 131.729 146.389 132.211 146.676C132.693 146.949 133.122 147.294 133.5 147.711C133.891 148.128 134.197 148.622 134.418 149.195C134.652 149.755 134.77 150.4 134.77 151.129C134.77 152.04 134.587 152.841 134.223 153.531C133.858 154.208 133.409 154.801 132.875 155.309C132.341 155.803 131.775 156.214 131.176 156.539C130.577 156.852 130.043 157.099 129.574 157.281C130.355 157.346 131.15 157.509 131.957 157.77C132.777 158.03 133.52 158.427 134.184 158.961C134.848 159.482 135.388 160.165 135.805 161.012C136.234 161.858 136.449 162.893 136.449 164.117C136.449 165.51 136.189 166.832 135.668 168.082C135.16 169.332 134.47 170.497 133.598 171.578C132.725 172.659 131.716 173.655 130.57 174.566C129.424 175.478 128.214 176.292 126.938 177.008C125.674 177.724 124.385 178.342 123.07 178.863C121.768 179.384 120.525 179.788 119.34 180.074L118.969 179.078C120.844 178.609 122.589 177.945 124.203 177.086C125.818 176.227 127.217 175.185 128.402 173.961C129.6 172.724 130.538 171.311 131.215 169.723C131.905 168.134 132.25 166.376 132.25 164.449C132.25 163.368 132.094 162.464 131.781 161.734C131.469 161.005 131.059 160.426 130.551 159.996C130.056 159.553 129.496 159.241 128.871 159.059C128.259 158.863 127.641 158.766 127.016 158.766C126.638 158.766 126.286 158.785 125.961 158.824C125.635 158.863 125.349 158.909 125.102 158.961C124.815 159.013 124.548 159.078 124.301 159.156V157.672ZM164.086 161.754L157.172 170.523C156.911 170.836 156.658 171.161 156.41 171.5C156.163 171.826 155.941 172.145 155.746 172.457C155.551 172.77 155.388 173.062 155.258 173.336C155.141 173.596 155.082 173.818 155.082 174H151.293V173.922C151.579 173.674 151.983 173.297 152.504 172.789C153.038 172.281 153.604 171.643 154.203 170.875L162.797 160.074L153.969 148.473C153.487 147.848 153.012 147.327 152.543 146.91C152.074 146.48 151.723 146.201 151.488 146.07V145.992H157.602C157.602 146.148 157.621 146.35 157.66 146.598C157.712 146.845 157.803 147.138 157.934 147.477C158.064 147.802 158.24 148.167 158.461 148.57C158.695 148.974 158.995 149.41 159.359 149.879L165.004 157.281L171.234 149.488C171.469 149.202 171.697 148.889 171.918 148.551C172.152 148.212 172.354 147.887 172.523 147.574C172.706 147.249 172.849 146.949 172.953 146.676C173.07 146.402 173.129 146.174 173.129 145.992H176.918V146.07C176.788 146.174 176.645 146.298 176.488 146.441C176.332 146.585 176.15 146.76 175.941 146.969C175.746 147.177 175.525 147.424 175.277 147.711C175.03 147.997 174.75 148.336 174.438 148.727L166.293 159L175.395 170.914C176.02 171.721 176.599 172.392 177.133 172.926C177.68 173.447 178.077 173.779 178.324 173.922V174H172.25C172.25 173.701 172.126 173.206 171.879 172.516C171.632 171.826 171.169 171.025 170.492 170.113L164.086 161.754ZM196.371 157.672C197.074 157.581 197.803 157.405 198.559 157.145C199.327 156.871 200.03 156.493 200.668 156.012C201.319 155.53 201.853 154.924 202.27 154.195C202.686 153.466 202.895 152.587 202.895 151.559C202.895 150.973 202.81 150.426 202.641 149.918C202.471 149.397 202.204 148.941 201.84 148.551C201.488 148.16 201.033 147.854 200.473 147.633C199.926 147.398 199.275 147.281 198.52 147.281C197.634 147.281 196.833 147.405 196.117 147.652C195.414 147.9 194.783 148.212 194.223 148.59C193.663 148.967 193.174 149.391 192.758 149.859C192.341 150.315 191.996 150.764 191.723 151.207L191.449 151.07L192.719 147.047C193.227 146.839 193.741 146.643 194.262 146.461C194.783 146.266 195.329 146.103 195.902 145.973C196.488 145.829 197.107 145.719 197.758 145.641C198.422 145.562 199.145 145.523 199.926 145.523C200.329 145.523 200.779 145.562 201.273 145.641C201.768 145.706 202.27 145.823 202.777 145.992C203.298 146.161 203.799 146.389 204.281 146.676C204.763 146.949 205.193 147.294 205.57 147.711C205.961 148.128 206.267 148.622 206.488 149.195C206.723 149.755 206.84 150.4 206.84 151.129C206.84 152.04 206.658 152.841 206.293 153.531C205.928 154.208 205.479 154.801 204.945 155.309C204.411 155.803 203.845 156.214 203.246 156.539C202.647 156.852 202.113 157.099 201.645 157.281C202.426 157.346 203.22 157.509 204.027 157.77C204.848 158.03 205.59 158.427 206.254 158.961C206.918 159.482 207.458 160.165 207.875 161.012C208.305 161.858 208.52 162.893 208.52 164.117C208.52 165.51 208.259 166.832 207.738 168.082C207.23 169.332 206.54 170.497 205.668 171.578C204.796 172.659 203.786 173.655 202.641 174.566C201.495 175.478 200.284 176.292 199.008 177.008C197.745 177.724 196.456 178.342 195.141 178.863C193.839 179.384 192.595 179.788 191.41 180.074L191.039 179.078C192.914 178.609 194.659 177.945 196.273 177.086C197.888 176.227 199.288 175.185 200.473 173.961C201.671 172.724 202.608 171.311 203.285 169.723C203.975 168.134 204.32 166.376 204.32 164.449C204.32 163.368 204.164 162.464 203.852 161.734C203.539 161.005 203.129 160.426 202.621 159.996C202.126 159.553 201.566 159.241 200.941 159.059C200.329 158.863 199.711 158.766 199.086 158.766C198.708 158.766 198.357 158.785 198.031 158.824C197.706 158.863 197.419 158.909 197.172 158.961C196.885 159.013 196.618 159.078 196.371 159.156V157.672ZM213.148 173.609C213.344 173.362 213.65 173.03 214.066 172.613C214.483 172.184 214.965 171.682 215.512 171.109C216.059 170.523 216.645 169.872 217.27 169.156C217.895 168.44 218.52 167.665 219.145 166.832C219.77 165.999 220.368 165.113 220.941 164.176C221.527 163.225 222.042 162.236 222.484 161.207C222.927 160.178 223.279 159.111 223.539 158.004C223.812 156.897 223.949 155.764 223.949 154.605C223.949 153.368 223.799 152.301 223.5 151.402C223.214 150.491 222.816 149.742 222.309 149.156C221.801 148.557 221.202 148.115 220.512 147.828C219.835 147.542 219.099 147.398 218.305 147.398C217.315 147.398 216.417 147.568 215.609 147.906C214.815 148.232 214.118 148.616 213.52 149.059C212.934 149.501 212.452 149.944 212.074 150.387C211.71 150.829 211.462 151.168 211.332 151.402L211.059 151.285L212.387 147.32C213.077 147.008 213.721 146.741 214.32 146.52C214.932 146.285 215.544 146.096 216.156 145.953C216.781 145.81 217.419 145.706 218.07 145.641C218.734 145.562 219.464 145.523 220.258 145.523C220.792 145.523 221.358 145.582 221.957 145.699C222.556 145.816 223.148 146.005 223.734 146.266C224.32 146.526 224.874 146.865 225.395 147.281C225.928 147.685 226.397 148.186 226.801 148.785C227.217 149.371 227.543 150.055 227.777 150.836C228.025 151.617 228.148 152.509 228.148 153.512C228.148 154.579 227.986 155.654 227.66 156.734C227.335 157.802 226.905 158.857 226.371 159.898C225.837 160.927 225.225 161.936 224.535 162.926C223.845 163.915 223.135 164.859 222.406 165.758C221.677 166.656 220.954 167.503 220.238 168.297C219.522 169.078 218.878 169.794 218.305 170.445H225.824C226.306 170.445 226.775 170.439 227.23 170.426C227.699 170.4 228.129 170.367 228.52 170.328C228.91 170.276 229.249 170.211 229.535 170.133C229.835 170.055 230.062 169.957 230.219 169.84H230.297V174H213.148V173.609ZM236.039 160.152C236.039 161.22 236.176 162.249 236.449 163.238C236.723 164.228 237.1 165.159 237.582 166.031C238.077 166.891 238.669 167.678 239.359 168.395C240.062 169.111 240.837 169.723 241.684 170.23C242.543 170.738 243.461 171.135 244.438 171.422C245.414 171.695 246.436 171.832 247.504 171.832C248.572 171.832 249.594 171.695 250.57 171.422C251.56 171.135 252.478 170.738 253.324 170.23C254.184 169.723 254.958 169.111 255.648 168.395C256.339 167.678 256.931 166.891 257.426 166.031C257.921 165.159 258.305 164.228 258.578 163.238C258.852 162.249 258.988 161.22 258.988 160.152C258.988 158.551 258.689 157.047 258.09 155.641C257.491 154.221 256.671 152.984 255.629 151.93C254.6 150.862 253.389 150.022 251.996 149.41C250.603 148.785 249.105 148.473 247.504 148.473C245.902 148.473 244.405 148.785 243.012 149.41C241.618 150.022 240.401 150.862 239.359 151.93C238.331 152.984 237.517 154.221 236.918 155.641C236.332 157.047 236.039 158.551 236.039 160.152ZM232.992 160.074C232.992 158.746 233.161 157.464 233.5 156.227C233.852 154.99 234.34 153.837 234.965 152.77C235.603 151.689 236.365 150.706 237.25 149.82C238.135 148.935 239.112 148.18 240.18 147.555C241.26 146.917 242.419 146.428 243.656 146.09C244.893 145.738 246.176 145.562 247.504 145.562C248.832 145.562 250.115 145.738 251.352 146.09C252.589 146.428 253.747 146.917 254.828 147.555C255.909 148.18 256.892 148.935 257.777 149.82C258.663 150.706 259.418 151.689 260.043 152.77C260.681 153.837 261.169 154.99 261.508 156.227C261.859 157.464 262.035 158.746 262.035 160.074C262.035 161.415 261.859 162.704 261.508 163.941C261.169 165.165 260.681 166.318 260.043 167.398C259.418 168.479 258.663 169.462 257.777 170.348C256.892 171.233 255.909 171.995 254.828 172.633C253.747 173.258 252.589 173.74 251.352 174.078C250.115 174.43 248.832 174.605 247.504 174.605C246.176 174.605 244.893 174.43 243.656 174.078C242.419 173.74 241.26 173.258 240.18 172.633C239.112 171.995 238.135 171.233 237.25 170.348C236.365 169.462 235.603 168.479 234.965 167.398C234.34 166.318 233.852 165.165 233.5 163.941C233.161 162.704 232.992 161.415 232.992 160.074Z" fill="white"/>
</svg>
